<?xml version="1.0" encoding="UTF-8" standalone="no"?>
<svg width="430px" height="406px" viewBox="0 0 430 406" version="1.1" xmlns="http://www.w3.org/2000/svg" xmlns:xlink="http://www.w3.org/1999/xlink" xmlns:sketch="http://www.bohemiancoding.com/sketch/ns">
    <!-- Generator: Sketch 3.4.4 (17249) - http://www.bohemiancoding.com/sketch -->
    <title>Group</title>
    <desc>Created with Sketch.</desc>
    <defs></defs>
    <g id="Page-1" stroke="none" stroke-width="1" fill="none" fill-rule="evenodd" sketch:type="MSPage">
        <g id="Artboard-2" sketch:type="MSArtboardGroup" transform="translate(-149.000000, -53.000000)" fill="#FFFFFF">
            <g id="Group-+-E-+-THETA" sketch:type="MSLayerGroup" transform="translate(149.000000, 53.000000)">
                <g id="Group" sketch:type="MSShapeGroup">
                    <path d="M110.516987,138.078003 L317.577548,138.078003 L317.577548,266.655226 C317.577548,279.322933 274.216253,405.714331 214.047267,405.714331 C153.878282,405.714331 110.516987,285.656786 110.516987,266.655226 C110.516986,247.653666 110.516987,138.078003 110.516987,138.078003 Z" id="Rectangle-9"></path>
                    <path d="M331.592229,340.760309 C343.556719,342.33403 353.563364,335.67834 353.563364,335.67834 C353.563364,335.67834 354.273411,345.805259 370.972182,345.805259 C387.670952,345.805259 401.176313,332.974335 401.176313,332.974335 C401.176313,332.974335 393.799841,328.413315 384.328654,327.264956 C374.857467,326.116597 368.367712,329.18104 368.367712,329.18104 L373.840299,320.386497 C373.840299,320.386497 388.199217,324.37038 402.212957,318.168508 C416.226697,311.966637 423.215775,297.51043 423.215775,297.51043 C423.215775,297.51043 413.614451,296.022622 404.839378,297.55741 C396.064305,299.092197 386.311991,303.965014 386.311991,303.965014 L392.938823,292.239114 C392.938823,292.239114 400.169683,296.853436 413.364631,282.054855 C426.55958,267.256274 429.979684,250.696536 429.979684,250.696536 C429.979684,250.696536 414.511176,256.105314 408.813304,260.604204 C403.463601,264.828188 394.49068,276.156048 394.49068,276.156048 L394.49068,258.623174 C394.49068,258.623174 406.554716,254.961963 412.144427,239.534506 C417.734139,224.107049 416.880233,206.919844 416.880233,206.919844 C416.880233,206.919844 405.527174,216.528997 401.176314,222.363139 C397.419622,227.400551 391.09091,246.402014 391.09091,246.402014 L385.793668,217.40267 C385.793668,217.40267 396.097756,221.44164 401.176314,200.412393 C406.254871,179.383145 399.994101,158.070763 399.994101,158.070763 C399.994101,158.070763 388.370286,177.037081 384.834125,186.399448 C381.297963,195.761815 383.403382,209.474338 383.403382,209.474338 C383.403382,209.474338 380.722662,204.938753 379.382302,202.670961 C377.691254,199.809829 374.309159,194.087566 374.309159,194.087566 C374.309159,194.087566 381.314481,191.492767 383.403378,175.663592 C385.492275,159.834418 380.781778,145.039558 380.781778,145.039558 C380.781778,145.039558 373.096597,152.050444 369.904147,162.686715 C366.711697,173.322986 370.234839,183.971097 368.367712,186.399448 C366.500586,188.827798 362.259206,175.663593 362.259206,175.663593 C362.259206,175.663593 365.992682,166.329606 358.021922,149.41381 C350.051162,132.498014 337.358255,122.818016 337.358255,122.818016 C337.358255,122.818016 337.97302,143.045264 343.021261,156.799631 C348.069502,170.553999 358.021922,179.117962 358.021922,179.117962 L330.228624,173.45938 C330.228624,173.45938 339.02281,185.004902 346.751006,190.686841 C354.479201,196.36878 365.904374,194.087566 365.904374,194.087566 L371.931724,204.22011 C371.931724,204.22011 361.266093,198.89366 355.580709,197.855231 C349.650218,196.772034 337.0841,197.855232 337.0841,197.855232 C337.0841,197.855232 343.309815,211.183387 354.355844,215.584961 C365.401872,219.986535 378.78559,214.472263 378.78559,214.472263 L385.549499,237.680574 C385.549499,237.680574 373.139459,226.367697 365.904374,223.22722 C359.141866,220.291872 343.55672,219.453101 343.55672,219.453101 C343.55672,219.453101 353.665351,238.574418 362.974578,246.402014 C372.283806,254.229611 384.834126,254.16091 384.834126,254.16091 L385.977865,270.308051 C385.977865,270.308051 378.792174,261.484064 370.972182,255.526007 C363.152189,249.56795 346.751006,246.402014 346.751006,246.402014 C346.751006,246.402014 350.985062,256.30464 362.139263,269.214488 C373.293464,282.124336 388.370286,286.63215 388.370286,286.63215 L374.309159,315.120283 C374.309159,315.120283 375.982542,297.55741 368.367712,286.63215 C360.752882,275.706891 349.343952,262.196035 349.343952,262.196035 C349.343952,262.196035 344.737255,277.055832 349.343952,293.242971 C353.95065,309.43011 365.410722,312.443403 365.904374,320.386497 C366.398025,328.329592 351.704253,331.221372 351.704253,331.221372 C351.704253,331.221372 353.871031,310.736867 352.860842,307.399485 C345.560061,283.279749 334.676679,269.214489 334.676679,269.214489 C334.676679,269.214489 332.147523,298.470992 334.676679,312.183821 C337.205836,325.89665 343.556719,335.678342 343.556719,335.678342 L318.68683,335.678342 C318.68683,335.678342 325.873806,330.658597 328.701384,322.235914 C331.555215,313.735032 330.050701,301.811104 330.228624,297.55741 C330.582833,289.08915 327.369127,276.156048 327.369127,276.156048 C327.369127,276.156048 318.897743,290.88111 315.830599,300.013575 C312.763456,309.146041 313.536011,321.910614 310.439697,329.181038 C307.343382,336.451463 301.00089,334.87033 299.981099,337.229622 C298.961309,339.588915 299.981099,342.145491 304.241232,343.521237 C308.501364,344.896983 319.627738,339.186587 331.592229,340.760309 Z" id="Path-1"></path>
                    <path d="M32.4341787,340.760309 C44.398669,342.33403 54.4053134,335.67834 54.4053134,335.67834 C54.4053134,335.67834 55.1153606,345.805259 71.8141314,345.805259 C88.5129022,345.805259 102.018262,332.974335 102.018262,332.974335 C102.018262,332.974335 94.6417912,328.413315 85.170604,327.264956 C75.6994167,326.116597 69.2096621,329.18104 69.2096621,329.18104 L74.6822488,320.386497 C74.6822488,320.386497 89.0411665,324.37038 103.054907,318.168508 C117.068647,311.966637 124.057725,297.51043 124.057725,297.51043 C124.057725,297.51043 114.456401,296.022622 105.681328,297.55741 C96.9062547,299.092197 87.153941,303.965014 87.153941,303.965014 L93.7807725,292.239114 C93.7807725,292.239114 101.011633,296.853436 114.206581,282.054855 C127.40153,267.256274 130.821633,250.696536 130.821633,250.696536 C130.821633,250.696536 115.353125,256.105314 109.655253,260.604204 C104.30555,264.828188 95.33263,276.156048 95.33263,276.156048 L95.33263,258.623174 C95.33263,258.623174 107.396665,254.961963 112.986377,239.534506 C118.576089,224.107049 117.722182,206.919844 117.722182,206.919844 C117.722182,206.919844 106.369124,216.528997 102.018263,222.363139 C98.2615716,227.400551 91.93286,246.402014 91.93286,246.402014 L86.6356174,217.40267 C86.6356174,217.40267 96.9397056,221.44164 102.018263,200.412393 C107.096821,179.383145 100.836051,158.070763 100.836051,158.070763 C100.836051,158.070763 89.2122357,177.037081 85.6760744,186.399448 C82.1399132,195.761815 84.2453317,209.474338 84.2453317,209.474338 C84.2453317,209.474338 81.564612,204.938753 80.2242521,202.670961 C78.5332042,199.809829 75.1511085,194.087566 75.1511085,194.087566 C75.1511085,194.087566 82.1564312,191.492767 84.2453279,175.663592 C86.3342246,159.834418 81.623728,145.039558 81.623728,145.039558 C81.623728,145.039558 73.9385463,152.050444 70.7460966,162.686715 C67.5536469,173.322986 71.0767886,183.971097 69.2096621,186.399448 C67.3425356,188.827798 63.1011556,175.663593 63.1011556,175.663593 C63.1011556,175.663593 66.8346319,166.329606 58.8638718,149.41381 C50.8931117,132.498014 38.2002044,122.818016 38.2002044,122.818016 C38.2002044,122.818016 38.8149702,143.045264 43.863211,156.799631 C48.9114519,170.553999 58.8638718,179.117962 58.8638718,179.117962 L31.0705738,173.45938 C31.0705738,173.45938 39.8647601,185.004902 47.5929556,190.686841 C55.3211512,196.36878 66.7463233,194.087566 66.7463233,194.087566 L72.7736738,204.22011 C72.7736738,204.22011 62.1080424,198.89366 56.4226592,197.855231 C50.4921678,196.772034 37.9260498,197.855232 37.9260498,197.855232 C37.9260498,197.855232 44.1517645,211.183387 55.1977933,215.584961 C66.2438221,219.986535 79.6275396,214.472263 79.6275396,214.472263 L86.3914484,237.680574 C86.3914484,237.680574 73.9814091,226.367697 66.7463233,223.22722 C59.9838161,220.291872 44.3986693,219.453101 44.3986693,219.453101 C44.3986693,219.453101 54.5073005,238.574418 63.816528,246.402014 C73.1257554,254.229611 85.6760761,254.16091 85.6760761,254.16091 L86.819815,270.308051 C86.819815,270.308051 79.6341235,261.484064 71.8141314,255.526007 C63.9941393,249.56795 47.5929556,246.402014 47.5929556,246.402014 C47.5929556,246.402014 51.827012,256.30464 62.981213,269.214488 C74.1354139,282.124336 89.2122357,286.63215 89.2122357,286.63215 L75.1511089,315.120283 C75.1511089,315.120283 76.8244919,297.55741 69.2096621,286.63215 C61.5948323,275.706891 50.1859023,262.196035 50.1859023,262.196035 C50.1859023,262.196035 45.5792051,277.055832 50.1859023,293.242971 C54.7925994,309.43011 66.2526719,312.443403 66.7463233,320.386497 C67.2399747,328.329592 52.546203,331.221372 52.546203,331.221372 C52.546203,331.221372 54.7129811,310.736867 53.7027921,307.399485 C46.4020108,283.279749 35.5186293,269.214489 35.5186293,269.214489 C35.5186293,269.214489 32.9894726,298.470992 35.5186293,312.183821 C38.0477859,325.89665 44.398669,335.678342 44.398669,335.678342 L19.5287795,335.678342 C19.5287795,335.678342 26.7157559,330.658597 29.5433342,322.235914 C32.3971647,313.735032 30.8926507,301.811104 31.0705738,297.55741 C31.4247832,289.08915 28.2110771,276.156048 28.2110771,276.156048 C28.2110771,276.156048 19.7396926,290.88111 16.672549,300.013575 C13.6054053,309.146041 14.3779611,321.910614 11.2816465,329.181038 C8.18533184,336.451463 1.84283931,334.87033 0.823049242,337.229622 C-0.196740822,339.588915 0.823049186,342.145491 5.08318156,343.521237 C9.34331394,344.896983 20.4696883,339.186587 32.4341787,340.760309 Z" id="Path-1" transform="translate(65.639607, 234.311638) scale(-1, 1) translate(-65.639607, -234.311638) "></path>
                    <path d="M89.3635739,155.804291 C90.079735,156.283663 90.8736506,156.673295 91.734631,156.952265 C95.8051287,158.271165 100.120835,156.710352 102.464745,153.396299 C103.482111,154.390887 104.739618,155.172241 106.186531,155.641061 C111.190797,157.262515 116.565678,154.531508 118.191662,149.541185 C119.397893,145.839134 118.202116,141.933689 115.461277,139.502013 L134.420891,133.129466 L151.092278,162.848954 L160.045111,139.062172 L185.449623,137.923911 L162.257476,112.928831 L174.193905,96.916634 C175.666063,100.267493 179.021225,102.608424 182.924668,102.608424 C188.186465,102.608424 192.451994,98.3547802 192.451994,93.1076443 C192.451994,91.5905093 192.095398,90.1564297 191.461229,88.8842088 C195.346194,87.685328 198.16839,84.0746014 198.16839,79.8065523 C198.16839,74.5594163 193.902861,70.3057722 188.641064,70.3057722 C185.224584,70.3057722 182.228119,72.099063 180.546591,74.7932186 C178.800749,72.8183478 176.244938,71.5725429 173.397341,71.5725429 C168.135544,71.5725429 163.870015,75.826187 163.870015,81.0733229 C163.870015,83.0778506 164.492533,84.9373864 165.555299,86.4701666 L138.243568,97.5215415 L83.7427662,25.5425171 C85.2591861,24.8130462 86.6008962,23.6734445 87.5848491,22.1625116 C88.1447825,21.3026923 88.5474328,20.3862397 88.79997,19.4467925 C89.4676844,17.6607464 89.604401,15.6577194 89.0719941,13.6762859 C87.7101408,8.60794179 82.4859556,5.6001612 77.4034499,6.95821991 C76.7019489,7.14566279 76.0398118,7.40647907 75.4231171,7.73017007 C74.9042371,5.37733998 73.4933072,3.2189251 71.307193,1.8032016 C67.6780103,-0.547050291 63.042678,-0.118548751 59.9166655,2.55551647 C56.9718097,4.82863446 55.519826,8.720229 56.5440177,12.5319143 C57.2136308,15.0239814 58.8170074,17.0178834 60.8781811,18.2395868 C60.385041,18.7206832 59.936994,19.2629876 59.5455642,19.8640573 C56.6797841,24.2646758 57.9339842,30.1487825 62.3468986,33.0065776 C63.9470781,34.0428509 65.7428638,34.5389052 67.5186307,34.5404454 C68.6326907,34.6515153 69.7853949,34.5672052 70.9309021,34.2611227 C72.675958,33.7948393 74.1774231,32.8745089 75.3417292,31.6617453 L127.147451,105.593404 L108.167812,128.080966 C107.034391,126.599377 105.453294,125.434348 103.541549,124.814915 C100.645239,123.876469 97.6247839,124.395978 95.2788382,125.967641 C94.7265088,132.969292 93.3333994,145.065769 89.9566224,154.26609 C89.7656871,154.78631 89.5677364,155.299104 89.3635739,155.804291 L89.3635739,155.804291 Z" id="Path-3"></path>
                    <path d="M341.180464,156.066434 C340.576176,156.427045 339.922085,156.726041 339.223893,156.952265 C335.153395,158.271165 330.837689,156.710352 328.493779,153.396299 C327.476413,154.390887 326.218906,155.172241 324.771993,155.641061 C319.767727,157.262515 314.392846,154.531508 312.766862,149.541185 C311.560631,145.839134 312.756408,141.933689 315.497247,139.502013 L296.537632,133.129466 L279.866246,162.848954 L270.913413,139.062172 L245.508901,137.923911 L268.701048,112.928831 L256.764619,96.916634 C255.292461,100.267493 251.937299,102.608424 248.033856,102.608424 C242.772059,102.608424 238.50653,98.3547802 238.50653,93.1076443 C238.50653,91.5905093 238.863126,90.1564297 239.497295,88.8842088 C235.61233,87.685328 232.790134,84.0746014 232.790134,79.8065523 C232.790134,74.5594163 237.055663,70.3057722 242.31746,70.3057722 C245.73394,70.3057722 248.730405,72.099063 250.411933,74.7932186 C252.157775,72.8183478 254.713586,71.5725429 257.561183,71.5725429 C262.82298,71.5725429 267.088509,75.826187 267.088509,81.0733229 C267.088509,83.0778506 266.46599,84.9373864 265.403225,86.4701666 L292.714956,97.5215415 L347.215758,25.5425171 C345.699338,24.8130462 344.357628,23.6734445 343.373675,22.1625116 C342.813741,21.3026923 342.411091,20.3862397 342.158554,19.4467925 C341.49084,17.6607464 341.354123,15.6577194 341.88653,13.6762859 C343.248383,8.60794179 348.472568,5.6001612 353.555074,6.95821991 C354.256575,7.14566279 354.918712,7.40647907 355.535407,7.73017007 C356.054287,5.37733998 357.465217,3.2189251 359.651331,1.8032016 C363.280514,-0.547050291 367.915846,-0.118548751 371.041858,2.55551647 C373.986714,4.82863446 375.438698,8.720229 374.414506,12.5319143 C373.744893,15.0239814 372.141517,17.0178834 370.080343,18.2395868 C370.573483,18.7206832 371.02153,19.2629876 371.41296,19.8640573 C374.27874,24.2646758 373.02454,30.1487825 368.611625,33.0065776 C367.011446,34.0428509 365.21566,34.5389052 363.439893,34.5404454 C362.325833,34.6515153 361.173129,34.5672052 360.027622,34.2611227 C358.282566,33.7948393 356.781101,32.8745089 355.616795,31.6617453 L303.811073,105.593404 L322.790712,128.080966 C323.924133,126.599377 325.505229,125.434348 327.416975,124.814915 C330.092538,123.947994 332.874044,124.325257 335.131885,125.626796 C335.665526,132.571144 337.048401,144.914655 340.480641,154.26609 C340.704688,154.876527 340.938396,155.47674 341.180464,156.066434 L341.180464,156.066434 Z" id="Path-3"></path>
                </g>
            </g>
        </g>
    </g>
</svg>